{
  "accessors": [
    {
      "bufferView": 2,
      "componentType": 5126,
      "count": 65532,
      "max": [
        92.934799194335938,
        222.95779418945312,
        91.295822143554688
      ],
      "min": [
        -118.91510009765625,
        -222.91610717773438,
        -91.267921447753906
      ],
      "type": "VEC3"
    },
    {
      "bufferView": 2,
      "byteOffset": 786384,
      "componentType": 5126,
      "count": 65532,
      "max": [
        0.99999642372131348,
        0.99990236759185791,
        0.99997532367706299
      ],
      "min": [
        -0.99999594688415527,
        -0.99999439716339111,
        -0.99998843669891357
      ],
      "type": "VEC3"
    },
    {
      "bufferView": 3,
      "componentType": 5126,
      "count": 65532,
      "max": [
        0.99999672174453735,
        0.99999767541885376,
        0.9999995231628418,
        1
      ],
      "min": [
        -0.99996292591094971,
        -0.99997204542160034,
        -0.99998283386230469,
        -1
      ],
      "type": "VEC4"
    },
    {
      "bufferView": 1,
      "componentType": 5126,
      "count": 65532,
      "max": [
        0.99654638767242432,
        0.998046875
      ],
      "min": [
        0.001953125,
        0.001953125
      ],
      "type": "VEC2"
    },
    {
      "bufferView": 1,
      "byteOffset": 524256,
      "componentType": 5126,
      "count": 65532,
      "max": [
        0.99654638767242432,
        0.998046875
      ],
      "min": [
        0.001953125,
        0.001953125
      ],
      "type": "VEC2"
    },
    {
      "bufferView": 0,
      "componentType": 5125,
      "count": 340188,
      "max": [
        65531
      ],
      "min": [
        0
      ],
      "type": "SCALAR"
    },
    {
      "bufferView": 2,
      "byteOffset": 1572768,
      "componentType": 5126,
      "count": 22325,
      "max": [
        119.00029754638672,
        222.20889282226562,
        91.295822143554688
      ],
      "min": [
        -40.395881652832031,
        -222.82550048828125,
        -8.8478670120239258
      ],
      "type": "VEC3"
    },
    {
      "bufferView": 2,
      "byteOffset": 1840668,
      "componentType": 5126,
      "count": 22325,
      "max": [
        0.99999403953552246,
        0.99956631660461426,
        0.99995821714401245
      ],
      "min": [
        -0.99998748302459717,
        -0.99998664855957031,
        -0.99883699417114258
      ],
      "type": "VEC3"
    },
    {
      "bufferView": 3,
      "byteOffset": 1048512,
      "componentType": 5126,
      "count": 22325,
      "max": [
        0.99992954730987549,
        0.99999678134918213,
        0.99990665912628174,
        -1
      ],
      "min": [
        -0.99996358156204224,
        -0.99996751546859741,
        -0.99993020296096802,
        -1
      ],
      "type": "VEC4"
    },
    {
      "bufferView": 1,
      "byteOffset": 1048512,
      "componentType": 5126,
      "count": 22325,
      "max": [
        0.99656480550765991,
        0.998046875
      ],
      "min": [
        0.001953125,
        0.0052421092987060547
      ],
      "type": "VEC2"
    },
    {
      "bufferView": 1,
      "byteOffset": 1227112,
      "componentType": 5126,
      "count": 22325,
      "max": [
        0.99656480550765991,
        0.998046875
      ],
      "min": [
        0.001953125,
        0.0052421092987060547
      ],
      "type": "VEC2"
    },
    {
      "bufferView": 0,
      "byteOffset": 1360752,
      "componentType": 5125,
      "count": 109812,
      "max": [
        22324
      ],
      "min": [
        0
      ],
      "type": "SCALAR"
    }
  ],
  "asset": {
    "extras": {
      "author": "Smithsonian Institution (https://sketchfab.com/Smithsonian)",
      "license": "CC0-1.0 (http://creativecommons.org/publicdomain/zero/1.0/)",
      "source": "https://sketchfab.com/3d-models/figure-of-a-dancer-63212acff8474095ba2626d9366df852",
      "title": "Figure of a Dancer"
    },
    "generator": "Sketchfab-7.80.0",
    "version": "2.0"
  },
  "bufferViews": [
    {
      "buffer": 0,
      "byteLength": 1800000,
      "byteOffset": 0,
      "name": "floatBufferViews",
      "target": 34963
    },
    {
      "buffer": 0,
      "byteLength": 1405712,
      "byteOffset": 1800000,
      "byteStride": 8,
      "name": "floatBufferViews",
      "target": 34962
    },
    {
      "buffer": 0,
      "byteLength": 2108568,
      "byteOffset": 3205712,
      "byteStride": 12,
      "name": "floatBufferViews",
      "target": 34962
    },
    {
      "buffer": 0,
      "byteLength": 1405712,
      "byteOffset": 5314280,
      "byteStride": 16,
      "name": "floatBufferViews",
      "target": 34962
    }
  ],
  "buffers": [
    {
      "byteLength": 6719992,
      "uri": "scene.bin"
    }
  ],
  "images": [
    {
      "uri": "textures/default_metallicRoughness.png"
    },
    {
      "uri": "textures/default_normal.jpeg"
    }
  ],
  "materials": [
    {
      "doubleSided": false,
      "emissiveFactor": [
        0,
        0,
        0
      ],
      "name": "default",
      "normalTexture": {
        "index": 1,
        "scale": 1,
        "texCoord": 1
      },
      "occlusionTexture": {
        "index": 0,
        "strength": 1,
        "texCoord": 0
      },
      "pbrMetallicRoughness": {
        "baseColorFactor": [
          1,
          1,
          1,
          1
        ],
        "metallicFactor": 0.10000000000000001,
        "metallicRoughnessTexture": {
          "index": 0,
          "texCoord": 0
        },
        "roughnessFactor": 1
      }
    }
  ],
  "meshes": [
    {
      "primitives": [
        {
          "attributes": {
            "NORMAL": 1,
            "POSITION": 0,
            "TANGENT": 2,
            "TEXCOORD_0": 3,
            "TEXCOORD_1": 4
          },
          "indices": 5,
          "material": 0,
          "mode": 4
        }
      ]
    },
    {
      "primitives": [
        {
          "attributes": {
            "NORMAL": 7,
            "POSITION": 6,
            "TANGENT": 8,
            "TEXCOORD_0": 9,
            "TEXCOORD_1": 10
          },
          "indices": 11,
          "material": 0,
          "mode": 4
        }
      ]
    }
  ],
  "nodes": [
    {
      "children": [
        1
      ],
      "name": "RootNode (gltf orientation matrix)",
      "rotation": [
        -0.70710678118654746,
        -0,
        -0,
        0.70710678118654757
      ]
    },
    {
      "children": [
        2
      ],
      "name": "RootNode (model correction matrix)"
    },
    {
      "children": [
        3
      ],
      "name": "root"
    },
    {
      "children": [
        4
      ],
      "matrix": [
        1,
        0,
        0,
        0,
        0,
        2.2204460492503131e-16,
        1,
        0,
        0,
        -1,
        2.2204460492503131e-16,
        0,
        0,
        0,
        0,
        1
      ],
      "name": "GLTF_SceneRootNode"
    },
    {
      "children": [
        5,
        6
      ],
      "name": "_0"
    },
    {
      "mesh": 0,
      "name": ""
    },
    {
      "mesh": 1,
      "name": ""
    }
  ],
  "samplers": [
    {
      "magFilter": 9729,
      "minFilter": 9987,
      "wrapS": 10497,
      "wrapT": 10497
    }
  ],
  "scene": 0,
  "scenes": [
    {
      "name": "OSG_Scene",
      "nodes": [
        0
      ]
    }
  ],
  "textures": [
    {
      "sampler": 0,
      "source": 0
    },
    {
      "sampler": 0,
      "source": 1
    }
  ]
}

